<svg width="12" height="7" viewBox="0 0 12 7" fill="none" xmlns="http://www.w3.org/2000/svg">
<path d="M12.0001 0.926405C11.9906 1.16622 11.8332 1.27586 11.7084 1.40193C9.95441 3.17934 8.18955 4.94579 6.44639 6.73553C6.08826 7.10279 5.85222 7.0795 5.5063 6.72456C3.7645 4.93619 2.01184 3.15741 0.237481 1.40056C-0.177622 0.989443 0.0150073 0.753734 0.331082 0.461839C0.641731 0.175426 0.868274 -0.234324 1.36206 0.279576C2.71453 1.68835 4.11584 3.04778 5.46832 4.45518C5.86714 4.87041 6.12082 4.84575 6.50743 4.44422C7.83007 3.06971 9.17983 1.72398 10.5296 0.376875C10.7046 0.201463 10.8728 -0.147988 11.1889 0.0671643C11.5199 0.29191 11.821 0.576953 12.0014 0.926405H12.0001Z" fill="white"/>
</svg>
